<svg id="scalesvg" data-name="scalesvg" xmlns="http://www.w3.org/2000/svg" viewBox="0 0 361.44 345">
				<path d="M847.68,712.5c-.72-2-1.29-4.06-2.18-6q-32-69.06-64-138.11c-.75-1.62-1.4-3.28-2.21-5.21,3.31-1.72,6.24-3.26,9.19-4.76q31.13-15.87,62.24-31.76c1.88-1,4.14-2.07,5.1-3.75A123.45,123.45,0,0,1,890,484.54c-9.63-14.7-9.19-28.82,3.09-43.19H887c-17.66,0-35.32,0-53,0-24.45-.06-42.2-17.77-42.33-42.21,0-8.5.28-17-.11-25.49-.24-5,1.64-6.63,6.3-6,1.61.21,3.26.21,5.63.35v11.07c0,6.67,0,13.33,0,20,.12,17.53,12.69,30.32,30.23,30.41,27.5.13,55,0,82.48,0h167.46c20.78,0,32.94-12.12,33-32.85,0-8,.29-16-.09-24-.25-5.09,2.51-5.19,6.18-5.16,3.43,0,6.09,0,5.84,4.88-.59,11.79.39,23.75-1.2,35.38-2.63,19.23-20.08,33.41-39.61,33.55s-39,0-58.49,0h-6.64c5.81,6.55,9.38,13.13,9.88,21s-1.93,15.09-6.78,21.87c1.32,1.09,2.54,2.15,3.81,3.15a126.73,126.73,0,0,1,26.54,29,25.57,25.57,0,0,0,9,8.07c23.6,12.3,47.39,24.26,71.11,36.34,1.45.74,2.85,1.6,4.55,2.55l-69,149.13Zm6.54-125.24c2.92,54.1,51.81,96.39,99,95.58,2.55-2.71-2.48-9.13,4.43-9.31,7.3-.19,2.09,6.82,5.53,9.94,27.32-1.69,51.16-12.3,70.46-32.61q25.2-26.5,28.29-63.33c-1.56-.13-2.37-.25-3.18-.25-2.61,0-5.09.1-5-3.75.08-3.49,2.09-4.23,4.91-4,3.9.31,3.68-2.11,3.56-4.82A104.4,104.4,0,0,0,993.41,481c-10-3.63-20.28-6.08-30.73-5.83-2.29,2.71,1.32,8.14-4.78,8.19-6.42.06-2.57-5.73-4.67-8.07-57.24.65-102.33,54-98.94,104.23,2.07,0,4.2.08,6.32,0,3-.14,4.16,1.24,4.1,4.2s-1.61,3.69-4.17,3.59C858.57,587.2,856.6,587.26,854.22,587.26Zm270.89-18.64-56.86-28.93c14.63,54.86,2.57,101-43.61,134.3-38.32,27.58-81.08,30.25-122.06,7-53.93-30.63-69.85-78.92-56-138.74L795,568.55c.54,1.43.78,2.22,1.13,3q29,62.51,57.83,125c1.66,3.61,4,3.74,7.16,3.73q98.74,0,197.49.06c4,0,6.16-1.16,7.9-5,14.61-31.92,29.47-63.74,44.23-95.59C1115.47,589.57,1120.17,579.32,1125.11,568.62Zm-224.62-91c38.67-20,76.75-19.82,114.67-.15a9.67,9.67,0,0,0,1.33-1.14c4.6-6.1,5.64-12.72,2.36-19.69-3.55-7.54-9.85-11.1-18-11.16-17.65-.12-35.29,0-52.93,0-11.15,0-22.31-.17-33.46.08-8.39.18-14.76,4.15-17.84,12.1C893.82,464.82,895,471.57,900.49,477.61Z" fill="#59493f" transform="translate(-779.28 -367.5)" />
				<circle cx="180.72" cy="215.77" r="9.2" fill="#59493f"/>
				<rect id="needle" x="180.72" y="212" width="67.08" height="9.13" rx="3.97" ry="3.97"  fill="#59493f"/>
				</svg>